# xmcd CD database file
#
# Track frame offsets:
#	150
#	16998
#	36118
#	54517
#	72751
#	96271
#	121459
#	140940
#	164335
#	188875
#	217214
#	237058
#
# Disc length: 3447 seconds
#
# Revision: 0
# Processed by: cddbd v1.5.2PL0 Copyright (c) Steve Scherf et al.
# Submitted via: CDex 1.70beta2
#
DISCID=b00d750c
DTITLE=Saskia Laroo - Really Jazzy
DYEAR=1900
DGENRE=Jazz
TTITLE0=Jazzn'Jamz
TTITLE1=Courtesy to Coltrane
TTITLE2=Really Jazzy
TTITLE3=Up the Mountain
TTITLE4=Same Song
TTITLE5=Munchin'
TTITLE6=Kumpa
TTITLE7=Big Blues
TTITLE8=Night Garden
TTITLE9=Funky Roads
TTITLE10=Jealousy
TTITLE11=Go For It
EXTD=
EXTT0=
EXTT1=
EXTT2=
EXTT3=
EXTT4=
EXTT5=
EXTT6=
EXTT7=
EXTT8=
EXTT9=
EXTT10=
EXTT11=
PLAYORDER=
